<?xml version="1.0" standalone="no"?>
<svg viewBox="0 0 200 200" xmlns="http://www.w3.org/2000/svg">
  <path fill="#FFFFFF" d="M24.4,-50.2C31.4,-38.2,36.8,-31.3,44.3,-23.8C51.8,-16.2,61.4,-8.1,65.4,2.3C69.3,12.7,67.6,25.4,61.2,34.8C54.8,44.2,43.7,50.3,32.7,55.6C21.7,60.9,10.9,65.3,0.1,65.2C-10.7,65,-21.4,60.3,-31,54.2C-40.6,48.2,-49.1,40.7,-58.1,31.4C-67,22.2,-76.5,11.1,-72.9,2.1C-69.3,-7,-52.8,-13.9,-41.5,-19.1C-30.2,-24.4,-24.1,-27.8,-18.1,-40.4C-12,-53,-6,-74.7,1.3,-77C8.7,-79.3,17.4,-62.2,24.4,-50.2Z" transform="translate(100 100)" />
</svg>
