<?xml version="1.0" standalone="no"?>
<svg viewBox="0 0 200 200" xmlns="http://www.w3.org/2000/svg">
  <path fill="#FFFFFF" d="M27.1,-45.3C33,-43.5,34.1,-31.9,36.7,-22.7C39.2,-13.6,43.2,-6.8,41.7,-0.9C40.2,5.1,33.3,10.1,33.3,23.8C33.3,37.4,40.3,59.6,35.9,64.3C31.5,69.1,15.8,56.3,3.7,49.9C-8.4,43.5,-16.7,43.5,-30.7,44.3C-44.6,45.1,-64.1,46.7,-70.2,39.4C-76.2,32.2,-68.7,16.1,-64,2.7C-59.3,-10.7,-57.4,-21.4,-54.5,-34C-51.6,-46.6,-47.7,-61.2,-38.4,-61.1C-29.2,-60.9,-14.6,-46,-2,-42.5C10.6,-39.1,21.2,-47.1,27.1,-45.3Z" transform="translate(100 100)" />
</svg>
